<svg xmlns="http://www.w3.org/2000/svg" viewBox="-6 -6 312.0000 117.0000" role="img"><title>Sarcosuchus — original schematic silhouette, not to scale</title><desc>Original artwork for ce-dinosaure.fr. Schematic body plan, not an anatomical reconstruction. No documented measurement; no human comparison.</desc><g fill="#56734c"><g transform="translate(0 5.0000)"><path d="M0 62 Q61 45 107 49 L113 43 L126 48 L136 41 L148 48 L162 43 L175 51 L221 51 L242 44 L260 45 L273 51 L300 54 L300 62 L273 67 L239 66 L217 68 L224 83 L243 88 L219 93 L202 77 L168 74 L124 73 L105 88 L82 90 L89 79 L106 68 Q62 69 0 62 Z"/></g></g></svg>
