<svg xmlns="http://www.w3.org/2000/svg" viewBox="0 0 350 94.88316" role="img" aria-labelledby="title"><title id="title">Plateosaurus: schematic comparison with a human</title><desc>Generic body-shape artwork from the Natural History Museum, London. Source: https://www.nhm.ac.uk/discover/dino-directory/plateosaurus.html. Colour adapted for ce-dinosaure.fr.</desc><svg x="0.00000" y="0.00000" width="312.11565" height="94.88316" viewBox="0 0 250 76"><g fill="#56734c" fill-rule="nonzero"><path d="M3.41864438,14.3590581 C2.51498111,13.7087308 2.51498111,13.0551289 3.41864438,12.3982526 C4.32230766,11.7413763 5.64103124,10.5595882 7.37481515,8.85288842 L3.41864438,10.7910994 L8.02449601,7.38130197 C8.45761657,5.63498007 8.45761657,4.76181902 8.02449601,4.76181902 C7.59137544,4.76181902 6.05609156,4.76181902 3.41864438,4.76181902 L0.125333558,5.43867024 C-0.246609949,4.119187 0.20928931,3.01942663 1.49303134,2.13938915 C2.77677337,1.25935156 5.89586451,0.584628814 10.8503048,0.115220905 C12.8711883,-0.247600164 15.2124311,0.246448853 17.8740333,1.59736786 C21.8664365,3.62374636 21.9059939,4.69354457 22.5385907,5.43867024 C22.9603219,5.93542072 25.1888917,8.25528156 29.2242997,12.3982526 C33.2170791,15.9334657 36.336621,17.9663114 38.5829255,18.4967898 C41.9523823,19.2925075 51.1099047,18.1023693 56.1345589,16.7388432 C61.1592131,15.3753172 74.2060346,12.3982526 78.836292,12.3982526 C83.4665493,12.3982526 92.3053329,12.3982526 94.8171718,12.3982526 C96.4917311,12.3982526 117.553561,12.3982526 158.002662,12.3982526 C177.410433,12.7551795 189.158218,13.1712121 193.246018,13.6463505 C197.333816,14.1214888 204.757392,15.1523198 215.516745,16.7388432 L224.885133,18.4967898 C238.452123,20.4464618 246.115363,21.4212978 247.874854,21.4212978 C249.634345,21.4212978 250.301273,21.6382373 249.875637,22.0721163 L242.130231,22.8580103 L233.543314,22.8580103 C228.597483,22.3340809 223.103626,21.8551768 217.06174,21.4212978 C207.998912,20.7704793 202.750589,21.4212978 199.29913,21.4212978 C195.84767,21.4212978 189.944408,22.0721163 188.810518,22.0721163 C188.05459,22.0721163 185.483201,22.3340809 181.096351,22.8580103 L173.533499,24.1296849 C141.177833,32.0894811 124.999999,36.0693793 124.999999,36.0693793 C124.999999,36.0693793 123.657764,36.6285103 120.973293,37.7467713 C119.871456,38.1999703 118.314207,38.7615569 116.301547,39.4315318 C114.288886,40.1015068 112.818847,40.4893778 111.891429,40.5951458 L109.656351,45.2392878 C114.086481,49.8888338 116.301547,53.0885685 116.301547,54.8384921 C116.301547,56.5884157 116.301547,56.9713757 116.301547,55.987371 L120.973293,60.3937802 C121.875655,61.2111099 122.326836,63.0871045 122.326836,66.0217629 C122.326836,68.9564223 122.326836,69.7758806 122.326836,68.4801378 L123.575434,71.4026816 C124.997149,72.8366099 125.708008,73.5535746 125.708008,73.5535746 C125.708008,73.5535746 122.524522,74.0845442 121.698632,72.1566479 C121.148039,70.8713841 121.148039,71.8195329 121.698632,75.0010932 C121.588643,75.4736124 120.522601,75.7098715 118.500504,75.7098715 C116.478407,75.7098715 113.89872,75.7098715 110.761443,75.7098715 C110.003238,74.8476797 108.954768,74.8476797 107.616031,75.7098715 C105.607927,77.0031578 107.822991,73.5535746 110.761443,73.5535746 C113.699895,73.5535746 118.500504,72.4209055 118.500504,71.4026816 C118.500504,70.7238654 118.500504,68.9302265 118.500504,66.0217629 C118.014667,64.4918896 117.526715,63.421928 117.036647,62.8118771 C116.54658,62.2018273 114.454845,60.5601272 110.761443,57.8867779 C104.802211,54.848971 101.822596,52.6893998 101.822596,51.4080651 C101.822596,49.4860627 99.9423776,54.657736 100.882487,57.8867779 C101.509226,60.0394726 102.104726,62.0343335 102.668988,63.8713608 C103.216001,65.4663981 102.933871,67.0026572 101.822596,68.4801378 C100.711321,69.9576185 99.6355161,71.6487638 98.5951807,73.5535746 L98.5951807,75.7098715 L88.6034699,75.7098715 L87.0458954,75.7098715 C87.6134103,75.2373523 87.6134103,75.0010932 87.0458954,75.0010932 C86.4783806,75.0010932 85.5880592,75.0010932 84.374931,75.0010932 C85.117191,74.0360808 86.0075125,73.5535746 87.0458954,73.5535746 C88.0842784,73.5535746 89.6385987,73.5535746 91.7088565,73.5535746 C93.7810666,73.1553887 95.3178149,71.9812957 96.3191012,70.0312959 C97.8210305,67.1062966 97.7717309,61.2341954 97.045416,60.3937802 C96.5612061,59.8335034 95.1510424,57.3671061 92.8149247,52.9945882 C91.0938318,49.2016672 90.2332854,46.6165674 90.2332854,45.2392878 C90.2332854,43.8620093 90.2332854,43.5903842 90.2332854,44.4244146 C90.193348,44.9182176 86.9625159,44.9182176 80.540789,44.4244146 C74.1190621,43.9306106 68.5425127,42.6541881 63.811141,40.5951458 C63.8417295,40.9864561 64.1808066,41.5444404 64.8283723,42.2691005 C65.475938,42.9937596 66.1355438,43.9838231 66.8071898,45.2392878 L68.2027102,50.3839465 C70.0263073,52.1243749 71.1833021,52.9945882 71.6736948,52.9945882 C72.1640875,52.9945882 71.4880485,52.9945882 69.6455777,52.9945882 L72.5147167,55.987371 L68.2027102,54.1464145 L70.4812303,56.9486172 L72.5147167,61.3024698 L69.6455777,57.8867779 L68.2027102,56.9486172 L69.6455777,63.8713608 L68.2027102,61.3024698 L66.8071898,57.8867779 L66.8071898,56.9486172 L65.7333372,58.687408 C64.451873,60.7307323 63.811141,62.1055554 63.811141,62.8118771 C63.811141,63.8713608 62.7939097,59.7861858 63.811141,57.8867779 C64.8283723,55.987371 64.8283723,55.2982398 64.8283723,54.1464145 C64.8283723,53.3785299 64.2400312,51.6690473 63.063349,49.0179647 L61.6419586,45.2392878 L53.8345617,39.4315318 C52.1974992,37.8751338 51.0325318,36.4266334 50.3396595,35.0860296 C49.6467872,33.7454247 49.0802486,32.5477555 48.6400437,31.4930203 L45.9989457,30.3901797 L39.7237619,28.2782228 C38.698558,27.9399609 36.5228301,26.8120393 33.1965782,24.894458 C29.8703264,22.9768767 27.3186247,20.8443207 25.5414733,18.4967898 L21.2494794,14.3590581 C18.2495257,11.980419 15.7440322,10.7910994 13.7329991,10.7910994 C10.7164493,10.7910994 8.65842507,10.7910994 7.37481515,11.5155954 C6.5190752,11.9985928 5.20035161,12.9464136 3.41864438,14.3590581 Z"/></g></svg><svg x="320.11565" y="20.17229" width="29.88435" height="74.71086" viewBox="0 0 80 200"><g fill="#56734c" fill-rule="evenodd"><path d="M27.292,26.574c-0.718-0.068-1.875,0.041-3.034-0.042c-0.852-0.062-1.73-0.5-2.037-0.806  c-0.721-0.722-0.254-2.249-0.297-2.567c-0.042-0.318-0.573-0.466-0.848-0.827c-0.276-0.36,0.148-1.103,0.148-1.103  s-0.23-0.057-0.517-0.328c-0.402-0.382,0.141-1.016-0.015-1.582c-0.232-0.848-1.696-0.339-2.221-1.2  c-0.512-0.839,0.372-1.792,1.501-3.829c1.188-2.142,0.699-1.845,0.487-3.797c-0.212-1.952,2.291-5.855,2.291-5.855  s-0.17-0.424,0.084-0.934c0.255-0.509,2.291-3.097,7.807-3.649c2.487-0.249,8.339,0.269,10.904,3.098  c3.122,3.444,2.719,9.441,2.418,10.607c-0.497,1.933-1.289,3.776-1.911,5.453c-0.187,0.504-0.066,1.223-0.21,1.694  c-0.117,0.386-0.472,0.718-0.488,0.872c-0.069,0.689,0.063,2.867,0.658,4.222c0.496,1.131,2.143,2.365,3.225,2.715  c2.642,0.855,5.67,0.247,8.782,1.209c4.114,1.272,5.99,5.222,10.224,9.631c3.641,3.79,7.148,7.208,8.91,9.419  c4.2,5.267,6.135,9.673,6.536,10.607c0.763,1.782-0.001,2.46-1.021,3.394c-1.019,0.933-1.525,1.697-7.211,9.334  c-3.907,5.249-9.891,10.911-12.729,12.729c-1.292,0.827-1.97,1.145-1.97,1.145s3.751,9.887,1.546,23.128  c-0.684,4.105-0.905,7.55-0.857,10.6c0.072,4.646,0.72,8.366,1.026,12.055c0.51,6.11,3.564,11.798,4.667,17.314  c1.103,5.516,0.213,14.21-0.109,17.817c-0.332,3.72-1.374,12.049-1.502,14.935c-0.078,1.78,0.975,3.771,1.314,5.428  c0.338,1.654,0.021,3.438-0.742,4.372c-0.764,0.934-2.589,4.412-3.691,5.854c-1.104,1.442-3.5,2.762-8.251,2.168  c-4.752-0.594-4.244-2.461-4.244-3.055s4.92-6.792,6.023-8.488s1.334-2.369,1.357-3.055c0.022-0.685,0.086-8.399-0.508-13.577  c-0.595-5.177-2.037-12.645-2.716-19.434c-0.678-6.789-2.667-8.21-3.754-11.201c-0.767-2.107-5.582-17.396-5.582-17.396  s0.255,0.934,0.255,2.801c0,1.866,0.509,9.589,0.424,12.134c-0.085,2.546,0.5,5.32,1.055,9.395c0.473,3.46,0.139,8.074-0.199,12.067  c-0.31,3.641-2.005,8.918-1.829,16.766c0.042,1.911,1.4,2.844,1.111,5.984c-0.217,2.366-5.653,4.074-7.774,4.329  s-6.892,1.77-10.625,2.447c-3.734,0.678-7.101-0.878-7.525-2.744c-0.424-1.867,1.773-2.673,3.725-3.437  c1.03-0.404,4.641-2.005,7.597-3.396c2.643-1.245,4.752-1.443,4.748-3.307c-0.003-1.42-0.251-8.576-0.634-16.634  c-0.342-7.176-1.193-14.432-1.272-15.87c-0.169-3.056-1.188-5.347-1.952-10.184s-5.6-22.402-6.703-30.039  c-0.473-3.272-0.581-7.029-0.084-10.84c0.662-5.083,2.083-9.863,2.083-9.863c0,0-0.382-1.655-0.339-2.631  c0.042-0.976-6.113-10.699-7.089-13.669s-0.599-4.985,0.25-8.125c0.537-1.985,3.334-12.132,5.859-18.853  c1.468-3.908,3.333-5.605,3.925-5.917c1.612-0.849,5.579-1.892,5.579-1.892S30.854,26.913,27.292,26.574z M54.064,61.025  c-0.203,0.886-1.303,4.983-1.921,8.134c-1.051,5.357-0.303,7.75,0.477,8.582c1.203,1.284,3.127,1.874,3.628,1.952  c0.827,0.127,6.046-7.828,7.446-10.247c1.4-2.418,3.818-7.509,4.392-8.337s-1.019-2.164-2.1-3.055  c-1.083-0.891-3.819-3.648-4.583-4.539s-5.07-4.563-5.134-4.244C55.854,51.359,54.34,59.811,54.064,61.025z M25.25,70.208  c0,0,0.185-2.948,0.253-4.539c0.117-2.731,0.137-3.523-0.425-4.044c-0.189-0.175-0.97-0.87-0.97-0.87s-1.449,2.504-1.067,3.204  C23.423,64.659,25.25,70.208,25.25,70.208z"/></g></svg></svg>
